<?xml version="1.0"?>
<svg width="170" height="64" xmlns="http://www.w3.org/2000/svg" xmlns:svg="http://www.w3.org/2000/svg">
 <g class="layer">
  <title>Layer 1</title>
  <path d="m51.24,45.38l-5.17,0c-0.18,-8.73 -0.69,-16.94 -1.51,-24.64l-0.05,0l-7.88,24.64l-3.94,0l-7.83,-24.64l-0.04,0c-0.59,7.39 -0.95,15.6 -1.1,24.64l-4.72,0c0.3,-10.99 1.07,-21.3 2.29,-30.92l6.41,0l7.47,22.72l0.04,0l7.51,-22.72l6.14,0c1.35,11.27 2.14,21.58 2.38,30.92m22.45,-22.81c-2.11,11.43 -4.89,19.74 -8.34,24.93c-2.69,3.99 -5.63,5.99 -8.84,5.99c-0.86,0 -1.91,-0.26 -3.16,-0.77l0,-2.76c0.61,0.09 1.33,0.14 2.15,0.14c1.5,0 2.7,-0.41 3.62,-1.24c1.1,-1 1.65,-2.14 1.65,-3.39c0,-0.85 -0.43,-2.61 -1.28,-5.26l-5.68,-17.64l5.08,0l4.08,13.19c0.91,2.99 1.3,5.09 1.14,6.28c2.23,-5.96 3.79,-12.45 4.68,-19.47l4.9,0l0,0z" fill="#5d87a1" id="svg_2"/>
  <path d="m142.57,45.38l-14.7,0l0,-30.92l4.95,0l0,27.12l9.75,0l0,3.8zm-18.55,0.75l-5.68,-2.81c0.5,-0.41 0.99,-0.86 1.42,-1.38c2.42,-2.83 3.62,-7.03 3.62,-12.59c0,-10.23 -4.01,-15.35 -12.04,-15.35c-3.94,0 -7.01,1.3 -9.21,3.9c-2.42,2.84 -3.62,7.02 -3.62,12.55c0,5.43 1.07,9.42 3.2,11.95c1.96,2.29 4.91,3.44 8.85,3.44c1.47,0 2.82,-0.18 4.05,-0.54l7.4,4.3l2.01,-3.47zm-18.41,-6.93c-1.25,-2.02 -1.88,-5.25 -1.88,-9.71c0,-7.79 2.37,-11.68 7.1,-11.68c2.48,0 4.29,0.93 5.45,2.79c1.25,2.02 1.88,5.22 1.88,9.62c0,7.85 -2.37,11.77 -7.1,11.77c-2.47,0 -4.29,-0.93 -5.45,-2.79m-9.25,-2.39c0,2.63 -0.97,4.78 -2.89,6.46c-1.92,1.68 -4.5,2.52 -7.74,2.52c-3.02,0 -5.95,-0.97 -8.79,-2.89l1.33,-2.65c2.44,1.22 4.65,1.83 6.64,1.83c1.86,0 3.32,-0.41 4.37,-1.23c1.06,-0.83 1.69,-1.98 1.69,-3.44c0,-1.83 -1.28,-3.4 -3.63,-4.72c-2.17,-1.19 -6.51,-3.68 -6.51,-3.68c-2.34,-1.71 -3.52,-3.55 -3.52,-6.57c0,-2.51 0.88,-4.53 2.63,-6.07c1.76,-1.55 4.03,-2.32 6.8,-2.32c2.87,0 5.48,0.77 7.83,2.29l-1.19,2.66c-2.01,-0.85 -3.99,-1.28 -5.95,-1.28c-1.58,0 -2.81,0.38 -3.66,1.14c-0.86,0.77 -1.39,1.74 -1.39,2.94c0,1.83 1.31,3.42 3.73,4.76c2.19,1.19 6.63,3.72 6.63,3.72c2.41,1.71 3.62,3.53 3.62,6.53" fill="#f8981d" id="svg_3"/>
  <path d="m152.34,45.38l0.77,0l0,-3.79l-1.16,0l-0.95,2.59l-1.03,-2.59l-1.11,0l0,3.79l0.73,0l0,-2.88l0.04,0l1.08,2.88l0.55,0l1.08,-2.88l0,2.88zm-6.24,0l0.82,0l0,-3.15l1.07,0l0,-0.64l-3,0l0,0.64l1.11,0l0,3.15z" fill="#f8981d" id="svg_5"/>
 </g>
</svg>